<?xml version="1.0" encoding="utf-8"?>
<!-- Generator: Adobe Illustrator 25.3.1, SVG Export Plug-In . SVG Version: 6.00 Build 0)  -->
<svg version="1.1" id="Layer_1" xmlns="http://www.w3.org/2000/svg" xmlns:xlink="http://www.w3.org/1999/xlink" x="0px" y="0px"
	 viewBox="0 0 335 207.9" style="enable-background:new 0 0 335 207.9;" xml:space="preserve">
<style type="text/css">
	.st0{fill:#1A2B56;}
	.st1{fill:#5A4388;}
</style>
<g>
	<path class="st0" d="M280.1,14.4c-0.3,1.3,1.2,5.1-5.5,10.2c-0.9,0.9-17.9,18.7-21.8,18.8c-2,0.5-10.1,2.9-22.6,3.3
		c-2.3,0.3-5.1,1.7-5.8,1.9c-0.7,0.2-2.4,6.2-6.8,7.6c-1.9,0.5-4.1,0.4-8.1-2c-2.1,0.6-6.5,4.7-8.9,3.9c-1.9,0-7.1-1.7-11.4-0.9
		c-0.3,0.1-0.5,0.2-0.6,0.3c-1.6,0.9-3.3,1.5-5.1,1.8c-1,0.2-1.9,0.4-2.5,0.6c-1.9,0.5-6-1.3-8.7-0.5c-2.7,0.8-19.5-0.5-32-6.4
		c-9.4-2.2-5.2-3.5-12.4-5.1c-1.8-0.3-17.4-7.1-23.9-5.8c-6.4,3.5-0.7,8-10.9,16.4c-5.1,5.3-11.6,7.6-13.9,10.5
		c-0.3,0.3-0.8,0.1-0.7-0.3c0.4-3.8,2-7.1,4.4-10.2c0.6-1.6-2.6-6.3-3.8-7c-1.2-0.7-2.6-5.2-3.9-5.8C74,45,62.9,38.7,58.2,38.7
		c-4.6-1.3-9.2-0.1-13.8-0.6c-1.8,0.3-4.3-1.1-8.7,0.6c-1.8,0.9,2.6-2.4,6.5-4c3.9-1.5,23.7-10.4,51-5.3c1.5,0,11.3-1.7,12.8-1.3
		c3.2,0.7,3.2,4.1,5.1,4.2c2.3,0.1,9.6-3.5,21.3,3c1.5,0.3,7.5,1,11.2-0.4s7.9-2.1,13.7-2.1c4.1-1.5,14.6-5.4,23.7,0.9
		c1.4,0,4.7,1.8,5.5,1.2c0.9-0.5,1.2-0.3,2.5-0.2c1.2,0.1,8.3-2.1,10.5-3.7c-0.7-0.4-1.4-0.9-1.8-1.5c-0.5-0.8-0.4-1.7,0-2.5
		c0.2-0.3,0.4-0.7,0.5-1.1c0.1-0.4,0-0.8-0.2-1.1c-0.4-0.8-1.2-1.2-2-1.6c-0.2-0.1-0.3-0.3-0.3-0.5c0-0.5,0.3-0.9,0.6-1.2
		c-6.7-1.6-13.7-1.3-15.5-1.5c-2.3-0.3-10.3-1.8-13.3-0.5c-2.2,1-2.8,2.7-7.7,3.9c-1.7,0.4-4.1,0.9-4.5,0.8s-1.2-1.5,3-2.5
		c1.1-0.1,1.5-0.5-0.8-1.1c-2.3-0.6-7.8-1.6-5.2-2c2.6-0.4,3.1-0.4,3.2-1.3c0.1-0.9-0.4-1.3,0.4-2c0.9-0.7,2.9-1,3.9-1.1
		c1-0.1,4.1,0.4,5.3,0.5c1.2,0,1.9-0.7,3.3-0.5c1.5,0.2,13.7-2.1,24.5,0.1c2.7,0.2,5.1,0.5,7.2,0.9c0.6-0.3,1.2-0.7,1.8-1.2
		c0.4-0.4,0.7-1,1.1-1.5c0.4-0.6,1-1,1.7-1.1c0.7-0.1,1.4,0,2,0c0.7,0,1.4,0.2,2.1,0.3c1.3,0.2,2.7,0.5,4,0.6
		c2.1,0.3,4.5,0.3,6.5-0.7c0.5-0.2,0.9-0.5,1.3-0.8c0.4-0.4,0.8-0.8,1.2-1.2c0.4-0.5,0.9-0.9,1.4-1.1c0.6-0.3,1.2-0.3,1.9-0.3
		c2.6,0,5.3,0.6,7.6,1.9c4.6,3.1,5.6,5.2,5.4,8.9c0,0,0,0.6-0.1,0.6c-0.1,0.3-0.2,0.4-0.2,0.6c0,0.1,0,0.2,0.1,0.3
		c0.1,0.1,0.2,0.3,0.2,0.3c0.5,1.2,2,2.1,2.6,2.6c0.5,0.4,0,1.1-0.3,1.5c-0.1,0.1-0.3,0.2-0.4,0.2c-0.3,0-0.7,0.1-0.5,0.6
		c0.3,0.7,0,2,0.4,2.3c0.3,0.3,0.3,0.7-0.2,0.9c-0.5,0.3-1.8,0.3-0.3,1.2c0.6,0.3,0.6,0.9,0.2,1.4c-0.6,0.9-1.6,1.3-2.7,1.2
		c-3.9-0.6-5.9,3.7-6,4c3.5,1.3,7.7,2,8.3,2c0,0,8.8-0.8,11.6-2.3c3.4-3.1,8.9-4.6,14-9.4c1.2-0.8,5.8-4.5,5.2-6.9
		c-0.6-2.3,0.3-3.5,2.4-4.2c0.5-0.5,2.3-3.3,2.8-1.9c0.2,0.6,2-5.9,3.3-5.2c2.3-1.4,2.3-0.3,2,0.9C280.7,10,281.4,11.7,280.1,14.4z"
		/>
</g>
<g>
	<g>
		<g>
			<path class="st1" d="M211.9,90.6c2.4,0,4.7-2.7,4.7-4.9c0-0.7-0.3-1.5-1.5-1.5c-0.9,0-4.6,1-4.6,4.6
				C210.5,89.6,210.8,90.6,211.9,90.6z"/>
		</g>
		<g>
			<path class="st1" d="M241.3,113.8c-0.5,0-3,1.5-4.4,1.5c-2.7,0-2.7-2.4-2.7-3.6c0-1.7,0.2-3.6,0.7-5.6
				c14.3-14.1,30.6-36.9,30.6-41.2c0-1-0.7-2.6-1.9-2.6c-6.4,0-20.3,17.8-27.9,33.3c-5.8,0.9-13,5.7-17.5,10.6
				c-1.2,0.8-12.8,8.1-17.3,8.1c0,0-1.5,0-1.5-1.2c0-2.4,6.2-11.4,8.7-14.2c0.3-0.3,0.4-0.6,0.4-0.8c0,0-0.7-0.9-2-0.9
				c-0.8,0-1.4,0.8-1.4,0.8c-2.2,2.6-4.5,5.6-6.4,8.5c-2.5,1.6-12.7,7.8-16.8,7.8c-0.8,0-1.4-0.2-1.4-1c0-2.4,3.2-5.2,3.2-6.3
				c0-0.5-0.3-0.9-1-1c-0.8,0-7,7.3-12.2,7.3c-1.5,0-2.1-0.6-2.1-1.7c0-5.6,11.6-14,16-14c1,0,1.7,0.5,1.7,1.5c0,0.8-0.6,1.9-1.9,3
				c0,0-0.3,0.3-0.3,0.7c0,0.3,0.2,0.7,0.6,0.7c0.7,0,5-2.9,5-5.4c0-2-1.4-2.9-3.4-2.9c-5.2,0-15.2,5.6-20.1,12
				c-3.7,2.3-12,7-15.6,7c-1.7,0-2.4-0.2-2.4-0.9c0-2.5,7.2-10.4,7.2-11.7c0-0.6-0.4-1.4-1.2-1.5c-0.6,0-1.2,0.4-1.2,0.4
				c-2.4,1.2-16,12.2-17.5,12.2c-0.1,0-0.2-0.1-0.2-0.1c2.9-5.2,8.3-12.1,8.3-13.8c0-0.7-0.5-1.5-1.5-1.5
				c-1.8,0-19.6,16.4-21.5,16.4c-0.1,0-0.2-0.1-0.2-0.2c0-1.5,6.3-8.5,6.3-11.7c0-0.5-0.3-1.2-1.2-1.2c-2.5,0-8.4,5.8-11.1,7.2
				c0,0-0.1,0.1-0.1,0.1c-4.1,2.4-11,6.2-14.2,6.2c-0.8,0-1.5-0.8-1.5-1.7c0-4.3,4.9-8.5,6.8-9.6c1.2-0.7,1.5-1.8,1.5-3
				c0-1.5-2.4-2-5-2.4c2.4-2.7,3.8-5.9,3.8-8.2c0-1.5-0.7-2.5-2.1-2.5c-4.1,0-10.2,5.7-10.2,9.2c0,2.2,2.3,3.3,4.7,4.1
				c-2.9,3.1-6.3,6.1-9.3,7.8c0,0,0,0-0.1,0.1c-2.6,1.5-6.2,3.6-9.4,4.9c-2.2,0.9-6.5,2.6-9.5,2.6c-1.9,0-3.2-0.7-3.2-2.6
				c0-3.9,10.2-7.7,10.2-9.2c0-0.4-0.6-0.5-1-0.5c-1.2,0.1-2.1,0.2-2.9,0.2c-2.6,0-3.6-0.6-3.6-1.5c0-2.9,9.2-8.6,12.8-8.6
				c0.5,0,1.9,0.2,1.9,1s-1.8,2-1.8,2s-0.7,0.3-0.7,0.8c0.3,0.7,0.6,0.8,0.9,0.8c0.1,0,6.2-2.6,6.2-5c0-1.7-1.7-1.9-3-1.9
				c-8.1,0-20.6,7.8-20.6,12c0,1.5,1.8,2.7,6.2,2.7c-0.4,0.2-0.7,0.5-1.1,0.7c0-0.2-0.1-0.3-0.1-0.3s-12.6,8.2-17.4,8.2
				c-1.7,0-2.4-0.2-2.4-0.9c0-2.5,7.2-10.4,7.2-11.7c0-0.6-0.4-1.4-1.2-1.5c-0.6,0-1.2,0.4-1.2,0.4c-2.4,1.2-16,12.2-17.5,12.2
				c-0.1,0-0.2-0.1-0.2-0.1c2.9-5.2,8.3-12.1,8.3-13.8c0-0.7-0.5-1.5-1.5-1.5c-1.8,0-19.6,16.4-21.5,16.4c-0.1,0-0.2-0.1-0.2-0.2
				c0-1.5,6.3-8.5,6.3-11.7c0-0.5-0.3-1.2-1.2-1.2c-2.5,0-8.4,5.8-11.1,7.2c-0.2,0.2-0.3,0.4-0.3,0.6c0,0.3,0.1,0.5,0.4,0.5
				c0.2,0,0.5-0.1,0.7-0.2l2.6-1.7c0.8-0.5,2.7-2.1,3.4-2.1c0.1,0,0.2,0.1,0.2,0.2c0,1.5-7.6,11.5-7.6,12.5c0,1,0.9,1.7,1.4,1.8
				c1.4,0,2.8-1.8,2.8-1.8c5.3-4.7,17.1-13.6,18.7-14.3l-7.5,11.6c0,0.6,0,2.1,0.9,2.1c1.5,0,2.4-0.1,19.1-12.1
				c-0.8,1.4-4.9,6.6-4.9,9.9c0,1.5,0.8,2.5,3.2,2.5c3.4,0,9.9-3.5,14.5-6.3c-1.5,1.6-2,2.8-2,3.8c0,2.5,2,3.4,4.7,3.4
				c4.1,0,10-2.2,13.5-3.9c5.4-2.8,10.9-6.5,10.9-6.5c0.3-0.1,0.5-0.3,0.6-0.5c2.5-1.8,5.1-4.4,7.6-7c2.1,0.4,4.1,0.5,4.1,0.5
				c0.4,0.1,0.6,0.2,0.6,0.5c0,1.5-9.6,6.8-9.6,13.3c0,1.2,0.5,2.7,2.7,2.7c5.2,0,18-8.5,19.4-9.5l0.2-0.1c0.2-0.1,0.3-0.2,0.4-0.3
				l0.7-0.5c0.8-0.5,2.7-2.1,3.4-2.1c0.1,0,0.2,0.1,0.2,0.2c0,1.5-7.6,11.5-7.6,12.5c0,1,0.9,1.7,1.4,1.8c1.4,0,2.8-1.8,2.8-1.8
				c5.3-4.7,17.1-13.6,18.7-14.3l-7.5,11.6c0,0.6,0,2.1,0.9,2.1c1.5,0,2.4-0.1,19.1-12.1c-0.8,1.4-4.9,6.6-4.9,9.9
				c0,1.5,0.8,2.5,3.2,2.5c4.1,0,12.7-5.2,17-7.9c-0.8,1.5-1.2,3-1.2,4.5c0,1.5,0.9,2.6,3.1,2.6c3.7,0,9.7-3.5,10.4-4.3
				c-0.1,0.3-0.4,1.4-0.4,2.4c0,1.2,0.5,2.7,2.7,2.7c4.6,0,15.1-6.7,18.4-8.8c-1.3,2.4-2.2,4.6-2.2,6.1c0,1.2,0.5,2.7,2.7,2.7
				c4.4,0,14-6,17.8-8.5c-1.4,2-2.2,3.8-2.2,5.3c0,1.9,1.4,3,4.4,3c3.1,0,7.7-2.9,12.6-7.3c-0.1,0.7-0.1,1.5-0.1,2.1
				c0,4.4,2.1,5.8,4.4,5.8c3,0,6.5-2.4,6.5-3.9C241.7,113.8,241.5,113.8,241.3,113.8z M261.1,65.6c0.4,0,0.6,0.3,0.6,0.8
				c0,6-13.8,23.8-25.6,36.2C241.7,86.7,257.6,65.6,261.1,65.6z M96.2,94.5c0-2.4,3.7-5.3,5.7-5.3c1,0,1.5,0.7,1.5,2
				c0,1.7-0.9,4.1-2.7,6.2C98.4,97,96.2,96.3,96.2,94.5z M231.4,107.3c-4.9,4.7-9,7.8-10.9,7.8c-1.2,0-1.8-0.6-1.8-1.5
				c0-3.7,8.7-13.3,15.8-15C233.2,101.6,232.1,104.7,231.4,107.3z"/>
		</g>
		<g>
			<path class="st1" d="M284.4,102.4c-7.9,0-17.2,1.8-25,4.4c-1.4-2-3.4-3.5-4.8-5c0.9-1,2-2.1,2.9-3.2c2.1-2.5,4.1-4.7,4.1-6.3
				c0-0.8-0.5-1.2-1.4-1.2c-2.9,0-9.7,4.9-9.7,9.9c0,1.2,0.2,2,0.5,2.7c-2,1.8-3.9,3.3-5.8,4.4c-0.2,0.2-0.3,0.4-0.3,0.6
				c0,0.3,0.1,0.5,0.4,0.5c0.2,0,0.5-0.1,0.7-0.2c1.8-1,3.6-2.6,5.6-4.4c1,1.5,2.6,2.4,3.8,3.5c-7.3,2.8-12.3,6.2-12.3,9
				c0,1.9,2.1,2.8,4.8,2.8c5.3,0,12.9-3.3,12.9-9c0-0.8-0.2-1.7-0.5-2.4c6.4-1.7,14.3-2.8,21.3-2.8c9.3,0,16.9,2,16.9,7.3
				c0,1.7-1.7,3.1-2.1,3.4c-0.4,0.3-0.7,0.7-0.7,1c0,0.2,0.1,0.3,0.3,0.3c0.2,0,0.4-0.1,0.8-0.2c1.8-0.6,4.7-2.2,4.7-5.2
				C301.6,105.1,294.1,102.4,284.4,102.4z M253.3,99c0-2.9,3.3-5.5,5.5-5.5c0.2,0,0.6,0.1,0.6,0.4c0,0.9-2.7,4.1-2.7,4.1L254,101
				C253.4,100.3,253.3,99.7,253.3,99z M250.7,117.7c-1.8,0-3.2-0.6-3.2-2.1c0-2.2,3.7-4.4,9.3-6.1c0.5,0.8,0.8,1.9,0.8,3.3
				C257.6,116,253.7,117.7,250.7,117.7z"/>
		</g>
	</g>
	<g>
		<g>
			<g>
				<path class="st1" d="M82,201.7c-4.6-0.7-8.9-4.7-12.4-8.9c-7.9,5.7-17.8,9.5-26.5,9.5c-10.6,0-17.8-5.5-17.8-15.5
					c0-15.5,15.7-25.8,29.4-34.7c0.4-8.9,3.1-14.5,3.1-14.5c5.2-10.8,13.6-11.4,15.5-11.4c0.4,0,4.4,0,4.4,5
					c0,8.3-9.5,15.3-20.1,22.9c0.1,4.1,0.8,8.5,2.6,13.5c0,0,0.1,0.6,0.4,1.5c5-2.9,10.6-4.9,15-4.9c0.8,0,8.1,0.1,8.1,7
					c0,6.8-4.6,13.7-11.2,19.2c2.7,3.1,5.9,5.9,9.5,7.7c0,0,1.9,1,1.9,2.2C83.9,201.6,82,201.7,82,201.7z M58.4,173.6
					c-3.2,2.7-5.9,6.1-6.7,10.2c0,0-0.3,1.5-1.5,1.5c-0.7,0-1.5-0.4-1.5-2.4c0-3.8,3.7-8.2,8.8-11.7c-1.9-5.6-2.7-10.6-2.9-15
					C42.4,164.9,30,174.6,30,187.9c0,7.3,3.9,12.2,14.4,12.2c5.1,0,15.8-3,24-8.7c-4.1-5.4-6.8-10.9-6.8-10.9
					C60.3,178.1,59.2,175.8,58.4,173.6z M72.2,128.6c-1.8,0-6.6,0.5-10.7,7.3c0,0-3.3,5.6-3.8,14.5c9.4-6.2,17.3-11.9,17.3-18.4
					C74.9,129,72.2,128.6,72.2,128.6z M73,167.2c-2.6,0-7.3,1.5-11.6,4.1c1.7,4.4,5.1,11.5,10,17.8c4.9-4.1,8.5-9.4,8.5-15.8
					C79.9,172.8,79.8,167.2,73,167.2z"/>
			</g>
		</g>
	</g>
	<g>
		<g>
			<g>
				<path class="st1" d="M101.9,181.4v-35h-7.3v-2.7h18.1v2.7h-7.4v35H101.9z"/>
			</g>
		</g>
		<g>
			<g>
				<path class="st1" d="M124.9,181.4h-3.4l7.5-37.7h4.4l7.5,37.7h-3.4l-1.9-9.8h-8.7L124.9,181.4z M127.2,169.3h7.9l-4-22.2
					L127.2,169.3z"/>
			</g>
		</g>
		<g>
			<g>
				<path class="st1" d="M154,181.4v-37.7h8.5c1.5,0,2.7,0.2,3.8,0.6s2,0.9,2.7,1.6c0.7,0.7,1.3,1.5,1.8,2.4c0.5,1,0.8,2,1,3.1
					s0.3,2.3,0.3,3.6v15.4c0,7.4-3.2,11.1-9.6,11.1L154,181.4L154,181.4z M157.4,178.7h5.2c4.2,0,6.3-2.6,6.3-7.7v-16.8
					c0-5.2-2.1-7.8-6.3-7.8h-5.2V178.7z"/>
			</g>
		</g>
		<g>
			<g>
				<path class="st1" d="M186.8,181.4v-37.7h9.2c1.3,0,2.5,0.2,3.5,0.6c1,0.3,1.9,0.9,2.6,1.5c0.7,0.6,1.2,1.4,1.7,2.2
					c0.4,0.9,0.8,1.8,0.9,2.8s0.3,2,0.3,3.2c0,1.2-0.1,2.2-0.2,3.2c-0.2,1-0.4,2-0.9,2.9c-0.4,1-0.9,1.8-1.6,2.4
					c-0.6,0.7-1.5,1.2-2.6,1.6c-1.1,0.4-2.3,0.6-3.7,0.6h-5.9v16.8H186.8z M190.1,161.9l6.3,0c1.9,0,3.2-0.6,4-1.9
					c0.8-1.3,1.2-3.4,1.2-6.1c0-2.6-0.4-4.5-1.3-5.7c-0.9-1.2-2.2-1.8-3.9-1.8h-6.3V161.9z"/>
			</g>
		</g>
		<g>
			<g>
				<path class="st1" d="M217.1,170.5v-15.8c0-1.3,0.1-2.6,0.3-3.7c0.2-1.1,0.5-2.2,1-3.2c0.5-1,1.1-1.8,1.8-2.5
					c0.7-0.7,1.6-1.2,2.7-1.6c1.1-0.4,2.4-0.6,3.8-0.6c1.5,0,2.7,0.2,3.8,0.6c1.1,0.4,2,0.9,2.7,1.6c0.7,0.7,1.3,1.5,1.8,2.5
					c0.5,1,0.8,2,1,3.2c0.2,1.1,0.3,2.3,0.3,3.7v15.8c0,7.7-3.2,11.5-9.6,11.5C220.3,182,217.1,178.1,217.1,170.5z M233,171.2v-17.3
					c0-5.4-2.1-8.1-6.3-8.1s-6.3,2.7-6.3,8.1v17.3c0,5.4,2.1,8.1,6.3,8.1S233,176.6,233,171.2z"/>
			</g>
		</g>
		<g>
			<g>
				<path class="st1" d="M251.1,181.4v-37.7h3.3v35h10.5v2.7H251.1L251.1,181.4z"/>
			</g>
		</g>
		<g>
			<g>
				<path class="st1" d="M277,181.4v-37.7h13.1v2.7h-9.8v14.3h7v2.5h-7v15.6h9.8v2.7L277,181.4L277,181.4z"/>
			</g>
		</g>
		<g>
			<g>
				<path class="st1" d="M301.7,172.3l2.9-0.9c0.1,1.1,0.3,2,0.6,2.9c0.3,0.9,0.7,1.7,1.2,2.5c0.5,0.8,1.2,1.4,2,1.8
					c0.9,0.4,1.8,0.6,2.9,0.6c1.7,0,3-0.5,4-1.4c0.9-0.9,1.4-2.3,1.4-4.1c0-1.5-0.4-2.9-1.3-4.2c-0.9-1.4-2.1-2.9-3.8-4.7l-5.9-6.2
					c-1.3-1.4-2.3-2.6-2.9-3.8c-0.7-1.2-1-2.4-1-3.7c0-2.5,0.8-4.4,2.4-5.9c1.6-1.5,3.7-2.2,6.2-2.2c2.5,0,4.4,0.7,6,2.1
					c1.5,1.4,2.5,3.4,3,6.1l0.1,0.3l-2.8,0.9l0-0.3c-0.3-1.9-1-3.4-2-4.6c-1.1-1.2-2.4-1.8-4.1-1.8c-1.7,0-3,0.4-4,1.3
					c-1,0.9-1.5,2.1-1.5,3.8c0,1,0.3,2,0.8,2.9c0.5,1,1.3,2,2.3,3.1l5.5,6c0.1,0.2,0.5,0.6,1.1,1.2c0.6,0.6,1,1.1,1.2,1.3
					s0.5,0.6,1,1.2c0.5,0.6,0.8,1,1,1.3c0.2,0.3,0.4,0.7,0.8,1.3c0.3,0.6,0.6,1,0.7,1.5c0.1,0.4,0.3,0.9,0.3,1.4
					c0.1,0.6,0.2,1.1,0.2,1.6c0,2.7-0.8,4.8-2.5,6.2c-1.7,1.5-3.8,2.2-6.4,2.2c-1.4,0-2.6-0.3-3.7-0.8c-1.1-0.5-2-1.2-2.8-2.1
					s-1.4-1.9-1.8-3.1C302.2,174.8,301.9,173.6,301.7,172.3z"/>
			</g>
		</g>
	</g>
</g>
</svg>
