<?xml version="1.0" encoding="utf-8"?>
<!-- Generator: Adobe Illustrator 26.0.1, SVG Export Plug-In . SVG Version: 6.00 Build 0)  -->
<svg version="1.1" id="Layer_1" xmlns="http://www.w3.org/2000/svg" xmlns:xlink="http://www.w3.org/1999/xlink" x="0px" y="0px"
	 viewBox="0 0 1000 1000" style="enable-background:new 0 0 1000 1000;" xml:space="preserve">
<style type="text/css">
	.st0{fill:#FFFFFF;}
	.st1{fill:#1A2B56;}
	.st2{fill:#5A4388;}
	.st3{fill:#73CBC9;}
</style>
<g>
	<g>
		<g>
			<path class="st0" d="M137.4,756.9c11.7,0.7,23.1,3.2,34.2,6.7c14.5,4.5,29.1,7.5,44.4,6.4c11.2-0.8,21.9-3.8,32.5-7.2
				c10.6-3.4,21.4-5.9,32.7-5.9c13.6-0.1,26.7,2.6,39.5,6.6c14.6,4.5,29.3,7.6,44.7,6.6c10-0.7,19.7-2.6,29-6
				c25.4-9.5,50.7-8.8,76.1-0.6c12.1,3.9,24.4,6.7,37.3,6.9c14.8,0.2,28.8-3.6,42.6-8.1c8.7-2.9,17.7-5,26.9-5.2
				c0.6,0,1.3,0,1.9,0.1c0-0.1,0-0.2,0-0.3c5.2,0.4,10.4,0.2,15.3,1.3c11.3,2.4,22.5,5.2,33.6,8.3c22.2,6.2,44.1,4.8,65.7-2.7
				c13.3-4.6,26.8-7.5,41-6.6c11.7,0.7,23.1,3.2,34.2,6.7c14.5,4.5,29.1,7.5,44.4,6.4c11.2-0.8,21.9-3.8,32.5-7.2
				c10.6-3.4,21.4-5.9,32.7-5.9c7.2,0,14.3,0.7,21.2,2c26.5-56.2,41.4-119,41.4-185.2c0-239.8-194.4-434.1-434.1-434.1
				S73.3,333.8,73.3,573.6c0,66.1,14.8,128.8,41.3,184.9C122,757.1,129.6,756.4,137.4,756.9z"/>
		</g>
	</g>
	<g>
		<path class="st1" d="M758.4,280.7c-0.7,3.1,2.9,12-12.9,23.8c-2.1,2-42,43.7-51,44c-4.6,1.1-23.6,6.9-53,7.8
			c-5.4,0.6-12,3.9-13.6,4.4c-1.7,0.4-5.7,14.6-15.9,17.7c-4.4,1.1-9.7,0.9-18.9-4.7c-5,1.3-15.2,11-20.9,9.1
			c-4.5-0.1-16.6-4-26.8-2.2c-0.6,0.2-1.1,0.5-1.5,0.7c-3.8,2-7.8,3.4-12,4.2c-2.3,0.4-4.4,0.9-5.9,1.3c-4.4,1.2-14.1-3.1-20.4-1.2
			s-45.7-1.2-74.9-14.9c-22.1-5.1-12.2-8.3-29.1-11.9c-4.1-0.7-40.7-16.6-55.9-13.7c-15,8.1-1.7,18.8-25.5,38.4
			c-11.9,12.4-27.2,17.7-32.6,24.6c-0.6,0.7-1.8,0.2-1.7-0.7c1-8.9,4.7-16.7,10.4-24c1.4-3.7-6-14.8-8.8-16.4
			c-2.8-1.6-6.2-12.1-9.1-13.5c-2.9-1.3-28.8-15.9-40-15.9c-10.8-3.1-21.5-0.3-32.3-1.3c-4.3,0.8-10-2.5-20.4,1.5
			c-4.1,2,6.1-5.7,15.2-9.4c9.1-3.6,55.6-24.3,119.5-12.4c3.4-0.1,26.4-3.9,30-3.1c7.4,1.6,7.4,9.6,11.9,9.8
			c5.3,0.2,22.4-8.3,49.8,7.1c3.5,0.7,17.6,2.4,26.2-1c8.6-3.4,18.6-5,32.2-4.9c9.5-3.6,34.2-12.7,55.5,2c3.2,0,11,4.1,13,2.9
			c2-1.2,2.9-0.7,5.9-0.4c2.7,0.3,19.5-5,24.5-8.6c-1.6-0.9-3.2-2-4.2-3.6c-1.2-1.9-0.9-3.9,0.1-5.8c0.4-0.8,1-1.6,1.2-2.5
			c0.2-0.9,0-1.8-0.4-2.5c-1-1.9-2.9-2.9-4.7-3.7c-0.4-0.2-0.7-0.8-0.7-1.2c0.1-1.1,0.6-2,1.4-2.7c-15.7-3.7-32.2-3-36.4-3.6
			c-5.5-0.7-24.1-4.2-31.2-1.1c-5.2,2.3-6.6,6.3-18.1,9.1c-4,1-9.5,2-10.6,1.8c-1.1-0.2-2.7-3.4,7-5.9c2.5-0.3,3.4-1.1-1.9-2.5
			c-5.4-1.4-18.3-3.7-12.2-4.6c6.1-0.9,7.2-0.9,7.6-3.1c0.3-2.1-1-3,1-4.8c2-1.7,6.8-2.4,9.1-2.6c2.3-0.3,9.5,1,12.3,1.2
			c2.9,0.1,4.4-1.7,7.8-1.1c3.4,0.5,32.1-4.9,57.3,0.3c6.3,0.4,11.9,1.1,16.8,2.1c1.5-0.6,2.9-1.6,4.1-2.8c1-1,1.6-2.3,2.5-3.4
			c1-1.4,2.3-2.3,4-2.6c1.6-0.2,3.2-0.1,4.8,0c1.7,0.1,3.3,0.4,5,0.6c3.1,0.5,6.3,1.1,9.4,1.5c5,0.6,10.5,0.6,15.2-1.7
			c1.1-0.5,2.1-1.2,3-1.9c1-0.9,1.8-1.9,2.7-2.9c0.9-1.1,2-2,3.3-2.6c1.4-0.6,2.9-0.8,4.4-0.8c6.2-0.1,12.3,1.5,17.8,4.4
			c10.7,7.2,13.2,12.1,12.6,20.8c0,0.1-0.1,1.3-0.2,1.4c-0.2,0.6-0.4,0.9-0.4,1.3c0,0.3,0.1,0.5,0.3,0.8c0.2,0.3,0.5,0.6,0.5,0.8
			c1.1,2.7,4.6,5,6,6.1c1.2,0.9,0.1,2.6-0.6,3.4c-0.3,0.3-0.6,0.5-1,0.5c-0.7,0-1.6,0.3-1.2,1.3c0.6,1.7,0,4.7,0.9,5.5
			c0.8,0.8,0.7,1.6-0.4,2.2c-1.2,0.6-4.1,0.8-0.7,2.8c1.4,0.8,1.3,2.1,0.5,3.3c-1.4,2.1-3.8,3.1-6.3,2.7c-9.1-1.4-13.8,8.6-14.1,9.3
			c8.2,3,18.1,4.8,19.5,4.7c0,0,20.7-1.8,27.1-5.4c7.9-7.2,20.9-10.7,32.7-22c2.9-1.9,13.5-10.5,12.2-16.1c-1.3-5.5,0.7-8.3,5.6-9.8
			c1.2-1.1,5.3-7.7,6.6-4.5c0.5,1.4,4.6-13.8,7.8-12.2c5.4-3.3,5.4-0.6,4.6,2.1C759.7,270.4,761.5,274.3,758.4,280.7z"/>
	</g>
	<g>
		<g>
			<g>
				<path class="st2" d="M598.6,459.1c5.6,0,10.9-6.3,10.9-11.4c0-1.7-0.7-3.4-3.6-3.4c-2.2,0-10.7,2.4-10.7,10.7
					C595.2,456.9,595.9,459.1,598.6,459.1z"/>
			</g>
			<g>
				<path class="st2" d="M667.5,513.5c-1.2,0-7,3.6-10.2,3.6c-6.3,0-6.3-5.6-6.3-8.5c0-3.9,0.5-8.5,1.7-13.1
					c33.5-33,71.6-86.4,71.6-96.6c0-2.4-1.7-6.1-4.4-6.1c-15.1,0-47.6,41.8-65.3,77.9c-13.6,2-30.4,13.4-41,24.9
					c-2.9,1.8-30,19-40.5,19c0,0-3.6,0-3.6-2.9c0-5.6,14.6-26.7,20.4-33.3c0.7-0.7,1-1.5,1-1.9c0,0-1.7-2.2-4.6-2.2
					c-1.9,0-3.2,1.9-3.2,1.9c-5.2,6-10.6,13.2-14.9,20c-5.9,3.7-29.7,18.3-39.4,18.3c-1.9,0-3.2-0.5-3.2-2.4
					c0-5.6,7.5-12.1,7.5-14.8c0-1.2-0.7-2.2-2.4-2.4c-1.9,0-16.5,17-28.6,17c-3.4,0-4.9-1.5-4.9-3.9c0-13.1,27.2-32.8,37.4-32.8
					c2.4,0,3.9,1.2,3.9,3.6c0,1.9-1.5,4.4-4.4,7c0,0-0.7,0.7-0.7,1.7c0,0.7,0.5,1.7,1.5,1.7c1.7,0,11.7-6.8,11.7-12.6
					c0-4.6-3.2-6.8-8-6.8c-12.2,0-35.7,13.1-47,28.2c-8.6,5.3-28,16.5-36.5,16.5c-3.9,0-5.6-0.5-5.6-2.2c0-5.8,16.8-24.3,16.8-27.4
					c0-1.5-1-3.2-2.9-3.4c-1.5,0-2.7,1-2.7,1c-5.6,2.9-37.6,28.6-41,28.6c-0.2,0-0.5-0.2-0.5-0.2c6.8-12.1,19.4-28.4,19.4-32.3
					c0-1.7-1.2-3.4-3.6-3.4c-4.1,0-45.9,38.4-50.3,38.4c-0.2,0-0.5-0.2-0.5-0.5c0-3.4,14.8-19.9,14.8-27.4c0-1.2-0.7-2.7-2.7-2.7
					c-5.8,0-19.7,13.6-26,16.8c-0.1,0.1-0.2,0.2-0.2,0.3c-9.5,5.7-25.7,14.6-33.3,14.6c-1.9,0-3.4-1.9-3.4-3.9
					c0-10,11.4-19.9,16-22.6c2.9-1.7,3.6-4.1,3.6-7c0-3.4-5.6-4.6-11.7-5.6c5.6-6.3,9-13.8,9-19.2c0-3.6-1.7-5.8-4.9-5.8
					c-9.7,0-23.8,13.4-23.8,21.6c0,5.1,5.3,7.8,10.9,9.5c-6.8,7.3-14.8,14.3-21.8,18.2c-0.1,0.1-0.1,0.1-0.2,0.2
					c-6,3.6-14.6,8.4-22.1,11.4c-5.1,2.2-15.3,6.1-22.3,6.1c-4.4,0-7.5-1.7-7.5-6.1c0-9.2,24-18,24-21.6c0-1-1.5-1.2-2.4-1.2
					c-2.7,0.2-4.9,0.5-6.8,0.5c-6.1,0-8.5-1.5-8.5-3.6c0-6.8,21.6-20.2,29.9-20.2c1.2,0,4.4,0.5,4.4,2.4c0,1.9-4.1,4.6-4.1,4.6
					s-1.7,0.7-1.7,1.9c0.7,1.7,1.5,1.9,2.2,1.9c0.2,0,14.6-6.1,14.6-11.7c0-3.9-3.9-4.4-7-4.4c-18.9,0-48.3,18.2-48.3,28.2
					c0,3.6,4.1,6.3,14.6,6.3c-0.9,0.5-1.7,1.1-2.5,1.6c-0.1-0.5-0.2-0.8-0.2-0.8s-29.6,19.2-40.8,19.2c-3.9,0-5.6-0.5-5.6-2.2
					c0-5.8,16.8-24.3,16.8-27.4c0-1.5-1-3.2-2.9-3.4c-1.5,0-2.7,1-2.7,1c-5.6,2.9-37.6,28.6-41,28.6c-0.2,0-0.5-0.2-0.5-0.2
					c6.8-12.1,19.4-28.4,19.4-32.3c0-1.7-1.2-3.4-3.6-3.4c-4.1,0-45.9,38.4-50.3,38.4c-0.2,0-0.5-0.2-0.5-0.5
					c0-3.4,14.8-19.9,14.8-27.4c0-1.2-0.7-2.7-2.7-2.7c-5.8,0-19.7,13.6-26,16.8c-0.5,0.5-0.7,1-0.7,1.5c0,0.7,0.2,1.2,1,1.2
					c0.5,0,1.2-0.2,1.7-0.5l6.1-3.9c1.9-1.2,6.3-4.9,8-4.9c0.2,0,0.5,0.2,0.5,0.5c0,3.4-17.7,26.9-17.7,29.4c0,2.4,2.2,3.9,3.2,4.1
					c3.2,0,6.6-4.1,6.6-4.1c12.4-10.9,40.1-31.8,43.9-33.5l-17.5,27.2c0,1.5,0,4.9,2.2,4.9c3.4,0,5.6-0.2,44.7-28.4
					c-1.9,3.2-11.4,15.5-11.4,23.1c0,3.4,1.9,5.8,7.5,5.8c7.9,0,23.2-8.3,33.9-14.8c-3.4,3.7-4.7,6.6-4.7,9c0,5.8,4.6,8,10.9,8
					c9.7,0,23.5-5.1,31.6-9.2c12.6-6.6,25.5-15.3,25.5-15.3c0.7-0.3,1.2-0.7,1.5-1.1c5.8-4.3,12-10.4,17.7-16.4
					c4.9,1,9.5,1.2,9.5,1.2c1,0.2,1.5,0.5,1.5,1.2c0,3.4-22.6,16-22.6,31.1c0,2.9,1.2,6.3,6.3,6.3c12.2,0,42.2-20,45.4-22.2l0.4-0.2
					c0.4-0.2,0.6-0.4,0.9-0.6l1.7-1.1c1.9-1.2,6.3-4.9,8-4.9c0.2,0,0.5,0.2,0.5,0.5c0,3.4-17.7,26.9-17.7,29.4
					c0,2.4,2.2,3.9,3.2,4.1c3.2,0,6.6-4.1,6.6-4.1c12.4-10.9,40.1-31.8,43.9-33.5l-17.5,27.2c0,1.5,0,4.9,2.2,4.9
					c3.4,0,5.6-0.2,44.7-28.4c-1.9,3.2-11.4,15.5-11.4,23.1c0,3.4,1.9,5.8,7.5,5.8c9.5,0,29.8-12.1,39.8-18.5
					c-1.8,3.5-2.9,7-2.9,10.5c0,3.6,2.2,6.1,7.3,6.1c8.7,0,22.8-8.3,24.3-10c-0.2,0.7-1,3.2-1,5.6c0,2.9,1.2,6.3,6.3,6.3
					c10.8,0,35.4-15.6,43.2-20.7c-3.1,5.6-5.1,10.8-5.1,14.4c0,2.9,1.2,6.3,6.3,6.3c10.2,0,32.8-14,41.8-19.8
					c-3.2,4.6-5.2,8.9-5.2,12.3c0,4.4,3.2,7,10.4,7c7.3,0,18-6.8,29.6-17c-0.2,1.7-0.2,3.4-0.2,4.9c0,10.4,4.9,13.6,10.2,13.6
					c7,0,15.3-5.6,15.3-9.2C668.3,513.5,668,513.5,667.5,513.5z M713.9,400.6c1,0,1.5,0.7,1.5,1.9c0,14.1-32.3,55.8-60,84.7
					C668.3,450.1,705.7,400.6,713.9,400.6z M327.6,468.3c0-5.6,8.7-12.4,13.4-12.4c2.4,0,3.6,1.7,3.6,4.6c0,3.9-2.2,9.5-6.3,14.6
					C332.7,474.2,327.6,472.5,327.6,468.3z M644.2,498.2c-11.4,10.9-21.1,18.2-25.5,18.2c-2.9,0-4.1-1.5-4.1-3.6
					c0-8.7,20.4-31.1,37.1-35.2C648.4,484.9,645.9,492.1,644.2,498.2z"/>
			</g>
			<g>
				<path class="st2" d="M768.5,486.8c-18.5,0-40.3,4.1-58.5,10.2c-3.2-4.6-8-8.3-11.2-11.7c2.2-2.4,4.6-4.9,6.8-7.5
					c4.9-5.8,9.7-10.9,9.7-14.8c0-1.9-1.2-2.9-3.2-2.9c-6.8,0-22.8,11.4-22.8,23.3c0,2.7,0.5,4.6,1.2,6.3
					c-4.6,4.1-9.2,7.8-13.6,10.2c-0.5,0.5-0.7,1-0.7,1.5c0,0.7,0.2,1.2,1,1.2c0.5,0,1.2-0.2,1.7-0.5c4.1-2.4,8.5-6.1,13.1-10.2
					c2.4,3.6,6.1,5.6,9,8.3c-17,6.6-28.9,14.6-28.9,21.1c0,4.4,4.9,6.6,11.2,6.6c12.4,0,30.3-7.8,30.3-21.1c0-1.9-0.5-3.9-1.2-5.6
					c15.1-3.9,33.5-6.6,49.8-6.6c21.8,0,39.6,4.6,39.6,17.2c0,3.9-3.9,7.3-4.9,8c-1,0.7-1.7,1.7-1.7,2.4c0,0.5,0.2,0.7,0.7,0.7
					c0.5,0,1-0.2,1.9-0.5c4.1-1.5,10.9-5.1,10.9-12.1C808.8,493.1,791.1,486.8,768.5,486.8z M695.5,478.8c0-6.8,7.8-12.9,12.9-12.9
					c0.5,0,1.5,0.2,1.5,1c0,2.2-6.3,9.7-6.3,9.7l-6.3,6.8C695.9,481.9,695.5,480.5,695.5,478.8z M689.4,522.7
					c-4.1,0-7.5-1.5-7.5-4.9c0-5.1,8.7-10.2,21.9-14.3c1.2,1.9,1.9,4.4,1.9,7.8C705.7,518.6,696.4,522.7,689.4,522.7z"/>
			</g>
		</g>
		<g>
			<g>
				<g>
					<path class="st2" d="M294.3,719.5c-10.7-1.7-20.9-10.9-29.1-20.9c-18.5,13.4-41.8,22.3-62.2,22.3c-24.8,0-41.8-12.9-41.8-36.2
						c0-36.4,36.7-60.5,68.9-81.3c1-20.9,7.3-34,7.3-34c12.1-25.2,31.8-26.7,36.2-26.7c1,0,10.4,0,10.4,11.7
						c0,19.4-22.3,35.9-47.1,53.7c0.2,9.5,1.9,19.9,6.1,31.6c0,0,0.2,1.5,1,3.6c11.7-6.8,24.8-11.4,35.2-11.4
						c1.9,0,18.9,0.2,18.9,16.5c0,16-10.7,32-26.2,44.9c6.3,7.3,13.8,13.8,22.3,18c0,0,4.4,2.4,4.4,5.1
						C298.6,719.2,294.3,719.5,294.3,719.5z M238.9,653.5c-7.5,6.3-13.8,14.3-15.8,24c0,0-0.7,3.4-3.4,3.4c-1.7,0-3.4-1-3.4-5.6
						c0-9,8.7-19.2,20.6-27.4c-4.4-13.1-6.3-24.8-6.8-35.2c-28.6,20.6-57.8,43.2-57.8,74.3c0,17,9.2,28.6,33.7,28.6
						c11.9,0,36.9-7,56.3-20.4c-9.7-12.6-16-25.5-16-25.5C243.5,664.1,240.8,658.8,238.9,653.5z M271.2,548.1c-4.1,0-15.5,1.2-25,17
						c0,0-7.8,13.1-9,34c22.1-14.6,40.5-27.9,40.5-43.2C277.7,549.1,271.2,548.1,271.2,548.1z M273.1,638.6c-6.1,0-17,3.4-27.2,9.7
						c3.9,10.2,11.9,26.9,23.5,41.8c11.4-9.7,19.9-22.1,19.9-36.9C289.4,651.8,289.2,638.6,273.1,638.6z"/>
				</g>
			</g>
		</g>
		<g>
			<g>
				<g>
					<path class="st2" d="M340.8,671.8v-82.1h-17.2v-6.3h42.4v6.3h-17.4v82.1H340.8z"/>
				</g>
			</g>
			<g>
				<g>
					<path class="st2" d="M394.8,671.8h-7.9l17.5-88.4h10.2l17.5,88.4h-7.9l-4.4-23h-20.4L394.8,671.8z M400.2,643.6h18.5l-9.3-52.1
						L400.2,643.6z"/>
				</g>
			</g>
			<g>
				<g>
					<path class="st2" d="M463,671.8v-88.4h19.9c3.4,0,6.3,0.5,8.9,1.4c2.6,0.9,4.8,2.1,6.4,3.7c1.7,1.6,3.1,3.5,4.2,5.7
						c1.1,2.3,1.8,4.7,2.3,7.2c0.5,2.5,0.7,5.3,0.7,8.4v36c0,17.4-7.5,26.1-22.6,26.1H463z M470.8,665.5h12.1
						c9.8,0,14.7-6,14.7-18.1V608c0-12.2-4.9-18.3-14.7-18.3h-12.1V665.5z"/>
				</g>
			</g>
			<g>
				<g>
					<path class="st2" d="M539.8,671.8v-88.4h21.6c3.1,0,5.8,0.4,8.2,1.3c2.4,0.8,4.4,2,6,3.4c1.6,1.4,2.9,3.2,3.9,5.2
						c1,2.1,1.8,4.2,2.2,6.5c0.4,2.3,0.6,4.7,0.6,7.4c0,2.7-0.2,5.2-0.5,7.5c-0.4,2.3-1,4.6-2,6.8c-1,2.3-2.2,4.2-3.8,5.7
						c-1.5,1.6-3.5,2.8-6,3.8c-2.5,1-5.4,1.5-8.6,1.5h-13.8v39.3H539.8z M547.6,626.2l14.7,0.1c4.4,0,7.5-1.5,9.4-4.5
						c1.9-3.1,2.8-7.9,2.8-14.4c0-6.1-1-10.6-3-13.4c-2-2.8-5.1-4.3-9.2-4.3h-14.7V626.2z"/>
				</g>
			</g>
			<g>
				<g>
					<path class="st2" d="M610.8,646.2v-37c0-3.1,0.2-6,0.7-8.6c0.5-2.6,1.2-5.1,2.3-7.4c1.1-2.3,2.5-4.3,4.2-5.9s3.8-2.9,6.4-3.8
						c2.6-0.9,5.6-1.4,8.9-1.4c3.4,0,6.3,0.5,8.9,1.4c2.6,0.9,4.7,2.2,6.4,3.8c1.7,1.6,3.1,3.5,4.2,5.9c1.1,2.3,1.9,4.8,2.3,7.4
						c0.5,2.6,0.7,5.5,0.7,8.6v37c0,18-7.5,27-22.6,27C618.3,673.2,610.8,664.2,610.8,646.2z M648.1,647.9v-40.5
						c0-12.6-4.9-19-14.7-19c-9.8,0-14.7,6.3-14.7,19v40.5c0,12.7,4.9,19,14.7,19C643.2,666.9,648.1,660.6,648.1,647.9z"/>
				</g>
			</g>
			<g>
				<g>
					<path class="st2" d="M690.3,671.8v-88.4h7.8v82.1h24.7v6.3H690.3z"/>
				</g>
			</g>
			<g>
				<g>
					<path class="st2" d="M751,671.8v-88.4h30.8v6.3h-23v33.5h16.4v5.9h-16.4v36.5h23v6.3H751z"/>
				</g>
			</g>
			<g>
				<g>
					<path class="st2" d="M808.9,650.5l6.9-2c0.3,2.5,0.8,4.7,1.5,6.8c0.7,2.1,1.7,4,2.9,5.8c1.2,1.8,2.8,3.2,4.8,4.2
						c2,1,4.2,1.5,6.7,1.5c4,0,7.1-1.1,9.3-3.3c2.2-2.2,3.3-5.4,3.3-9.5c0-3.4-1-6.7-3-9.8c-2-3.2-5-6.8-8.9-10.9l-13.8-14.5
						c-3-3.2-5.3-6.2-6.9-8.9c-1.6-2.8-2.4-5.7-2.4-8.7c0-5.8,1.9-10.4,5.7-13.9c3.8-3.5,8.7-5.2,14.6-5.2c5.8,0,10.4,1.6,14,4.9
						c3.5,3.3,5.9,8,7,14.3l0.2,0.8l-6.6,2.1l-0.1-0.7c-0.7-4.4-2.3-8-4.8-10.8c-2.5-2.8-5.7-4.2-9.7-4.2c-3.9,0-7,1-9.3,3
						c-2.3,2-3.5,4.9-3.5,8.8c0,2.3,0.6,4.6,1.9,6.9c1.2,2.3,3,4.7,5.4,7.2l13,14.1c0.3,0.4,1.2,1.3,2.6,2.8c1.4,1.5,2.3,2.5,2.7,3
						c0.4,0.5,1.2,1.4,2.4,2.8c1.1,1.4,1.9,2.4,2.4,3.1c0.4,0.7,1,1.7,1.8,3c0.8,1.3,1.3,2.4,1.6,3.4c0.3,1,0.6,2.1,0.8,3.3
						c0.3,1.3,0.4,2.5,0.4,3.8c0,6.3-1.9,11.2-5.8,14.6c-3.9,3.4-8.9,5.1-15.1,5.1c-3.2,0-6-0.6-8.6-1.8c-2.6-1.2-4.7-2.9-6.5-5
						c-1.8-2.1-3.2-4.5-4.3-7.2C810.1,656.5,809.3,653.6,808.9,650.5z"/>
				</g>
			</g>
		</g>
	</g>
</g>
<path class="st3" d="M508.8,774.4c-0.3,0-0.6,0-0.9,0c-11.7-0.1-23.9-2.4-38.5-7.1c-26-8.4-50-8.2-73.3,0.5
	c-9.2,3.4-19.3,5.6-30.2,6.3c-17.7,1.2-34-3-46.3-6.8c-14.2-4.4-26.4-6.4-38.2-6.4c-9.4,0-19.4,1.9-31.4,5.7
	c-10.3,3.3-21.5,6.5-33.5,7.4c-13.8,1-28.4-1.1-46-6.6c-12-3.7-22.9-5.9-33.2-6.5l0,0c-7-0.4-14.1,0.1-21.7,1.6l-3.2,0.6l-1.4-3
	c-27.7-58.6-41.7-121.5-41.7-186.8c0-59.2,11.6-116.6,34.5-170.6c22.1-52.2,53.7-99.1,93.9-139.3c40.3-40.3,87.1-71.9,139.3-93.9
	c54-22.9,111.5-34.5,170.6-34.5s116.6,11.6,170.6,34.5c52.2,22.1,99.1,53.7,139.3,93.9c40.3,40.3,71.9,87.1,93.9,139.3
	c22.9,54,34.5,111.5,34.5,170.6c0,65.4-14.1,128.3-41.8,187l-1.4,3l-3.2-0.6c-7.2-1.3-13.8-2-20.4-1.9c-9.4,0-19.4,1.9-31.4,5.7
	c-10.3,3.3-21.5,6.5-33.5,7.4c-13.8,1-28.4-1.1-46-6.6c-12-3.7-22.9-5.9-33.2-6.5c-12.1-0.7-24.6,1.3-39.3,6.4
	c-23,8-46,8.9-68.2,2.7c-11.2-3.1-22.5-5.9-33.4-8.2c-3-0.7-6.3-0.8-9.7-0.9c-0.1,0-0.3,0-0.4,0v0.4l-4.5-0.3
	c-0.6,0-1.1-0.1-1.6-0.1c-7.7,0.2-15.9,1.8-25.7,5C538.6,770.4,524.3,774.4,508.8,774.4z M432.4,752.7c12.8,0,25.9,2.2,39.6,6.6
	c13.8,4.4,25.2,6.5,36,6.7c14.6,0.1,28.5-3.7,41.3-7.9c9.7-3.2,18-4.9,25.9-5.3V752l4.6,0.4c1.5,0.1,3.2,0.2,4.7,0.3
	c3.6,0.2,7.4,0.3,11.1,1.1c11.1,2.4,22.4,5.2,33.8,8.3c20.8,5.8,41.5,4.9,63.2-2.6c15.8-5.5,29.4-7.7,42.6-6.9
	c11,0.7,22.5,2.9,35.2,6.9c16.8,5.2,30,7.1,42.9,6.2c11.2-0.8,21.7-3.8,31.5-7c12.9-4.2,23.7-6.1,34-6.1c6.1,0,12.3,0.5,18.8,1.5
	c26.3-56.7,39.6-117.4,39.6-180.5c0-58-11.4-114.3-33.8-167.3c-21.7-51.2-52.6-97.2-92.1-136.6c-39.5-39.5-85.4-70.5-136.6-92.1
	c-53-22.4-109.3-33.8-167.3-33.8c-58,0-114.3,11.4-167.3,33.8c-51.2,21.7-97.2,52.6-136.6,92.1s-70.5,85.4-92.1,136.6
	c-22.4,53-33.8,109.3-33.8,167.3c0,62.9,13.3,123.5,39.5,180.2c7.1-1.2,13.9-1.5,20.6-1.1c11,0.7,22.5,2.9,35.2,6.9
	c16.8,5.2,30,7.1,42.9,6.2c11.2-0.8,21.7-3.8,31.5-7c12.9-4.2,23.7-6.1,34-6.1c12.8,0,25.7,2.1,40.8,6.8c17.1,5.3,30.5,7.3,43.2,6.4
	c10-0.7,19.3-2.6,27.8-5.8C405.9,755.1,419,752.7,432.4,752.7z"/>
</svg>
